<svg xmlns="http://www.w3.org/2000/svg" viewBox="0 0 24 24" width="24" height="24" color="#000000" fill="none">
    <path fill-rule="evenodd" clip-rule="evenodd" d="M2.75 12.3228C2.75 7.21275 6.89 3.07275 12 3.07275C17.11 3.07275 21.25 7.21275 21.25 12.3228C21.25 17.4328 17.11 21.5728 12 21.5728C6.89 21.5728 2.75 17.4328 2.75 12.3228ZM12 1.57275C6.06 1.57275 1.25 6.38275 1.25 12.3228C1.25 18.2628 6.06 23.0728 12 23.0728C17.94 23.0728 22.75 18.2628 22.75 12.3228C22.75 6.38275 17.94 1.57275 12 1.57275ZM10.25 9.32275C10.25 8.91275 9.91 8.57275 9.5 8.57275C9.09 8.57275 8.75 8.91275 8.75 9.32275V15.3228C8.75 15.7328 9.09 16.0728 9.5 16.0728C9.91 16.0728 10.25 15.7328 10.25 15.3228V9.32275ZM15.25 9.32275C15.25 8.91275 14.91 8.57275 14.5 8.57275C14.09 8.57275 13.75 8.91275 13.75 9.32275V15.3228C13.75 15.7328 14.09 16.0728 14.5 16.0728C14.91 16.0728 15.25 15.7328 15.25 15.3228V9.32275Z" fill="#141B34" />
</svg>